<svg width="256" height="256" fill="none" xmlns="http://www.w3.org/2000/svg"><g clip-path="url(#clip0)"><mask id="a" fill="#fff"><path fill-rule="evenodd" clip-rule="evenodd" d="M243.353 122.053c18.168-25.024 15.972-60.237-6.588-82.798-23.9-23.9-61.998-24.946-87.14-3.14-25.005-24.854-65.423-24.807-90.37.14a64.91 64.91 0 0 0-3.396 3.668c-12.935-.53-26.043 4.143-35.918 14.018-15.545 15.545-18.199 39.1-7.962 57.379-17.421 24.957-14.996 59.561 7.276 81.833a63.853 63.853 0 0 0 19.208 13.224 47.906 47.906 0 0 0 9.478 13.446c14.96 14.96 37.338 17.981 55.294 9.063a48.691 48.691 0 0 0 2.706 2.937c18.745 18.746 49.137 18.746 67.882 0a48.13 48.13 0 0 0 6.591-8.208c12.07 6.32 27.326 4.41 37.468-5.733 7.707-7.707 10.661-18.367 8.862-28.337 3.605-2.068 7-4.642 10.079-7.722 16.232-16.231 18.408-41.196 6.53-59.77z"/></mask><path fill-rule="evenodd" clip-rule="evenodd" d="M243.353 122.053c18.168-25.024 15.972-60.237-6.588-82.798-23.9-23.9-61.998-24.946-87.14-3.14-25.005-24.854-65.423-24.807-90.37.14a64.91 64.91 0 0 0-3.396 3.668c-12.935-.53-26.043 4.143-35.918 14.018-15.545 15.545-18.199 39.1-7.962 57.379-17.421 24.957-14.996 59.561 7.276 81.833a63.853 63.853 0 0 0 19.208 13.224 47.906 47.906 0 0 0 9.478 13.446c14.96 14.96 37.338 17.981 55.294 9.063a48.691 48.691 0 0 0 2.706 2.937c18.745 18.746 49.137 18.746 67.882 0a48.13 48.13 0 0 0 6.591-8.208c12.07 6.32 27.326 4.41 37.468-5.733 7.707-7.707 10.661-18.367 8.862-28.337 3.605-2.068 7-4.642 10.079-7.722 16.232-16.231 18.408-41.196 6.53-59.77z" fill="#273444"/><path d="M243.353 122.053l-8.093-5.875-4.006 5.518 3.674 5.745 8.425-5.388zm-6.588-82.798l7.071-7.071-7.071 7.07zm-87.14-3.14l-7.05 7.093 6.586 6.547 7.016-6.085-6.552-7.555zm-90.37.14l-7.071-7.071 7.07 7.07zm-3.396 3.668l-.41 9.991 4.848.199 3.156-3.684-7.594-6.506zM19.94 53.94l-7.071-7.07 7.071 7.07zM11.98 111.32l8.2 5.724 3.588-5.141-3.063-5.469-8.725 4.886zm7.276 81.833l-7.071 7.071 7.07-7.071zm19.208 13.224l9.043-4.268-1.584-3.358-3.392-1.51-4.067 9.136zm9.478 13.446l-7.071 7.071 7.071-7.071zm55.294 9.063l7.627-6.467-5.063-5.972-7.012 3.483 4.448 8.956zm2.706 2.937l-7.07 7.071 7.07-7.071zm67.882 0l7.072 7.071-7.072-7.071zm6.591-8.208l4.639-8.859-8.142-4.264-4.934 7.755 8.437 5.368zm37.468-5.733l-7.071-7.071 7.071 7.071zm8.862-28.337l-4.975-8.675-6.118 3.509 1.252 6.941 9.841-1.775zm10.079-7.722l7.071 7.072v-.001l-7.071-7.071zm14.622-53.894c21.012-28.941 18.483-69.653-7.609-95.745l-14.143 14.142c19.029 19.029 20.892 48.745 5.567 69.852l16.185 11.751zm-7.609-95.745C216.199 4.547 172.151 3.34 143.073 28.56l13.104 15.109c21.206-18.393 53.355-17.506 73.516 2.656l14.143-14.142zm-87.162-3.16C127.762.284 81.029.338 52.184 29.183l14.142 14.142c21.049-21.05 55.152-21.088 76.249-.118l14.099-14.185zm-104.49.16a74.926 74.926 0 0 0-3.92 4.233l15.189 13.011a54.893 54.893 0 0 1 2.873-3.102L52.184 29.184zm4.084.747c-15.61-.64-31.465 5.006-43.398 16.94l14.142 14.141C34.83 53.194 45.19 49.494 55.45 49.914l.819-19.983zM12.87 46.871C-5.923 65.663-9.113 94.122 3.254 116.205l17.45-9.772c-8.107-14.476-5.988-33.126 6.308-45.422L12.87 46.87zm-9.09 58.725c-20.148 28.863-17.356 68.868 8.404 94.628l14.142-14.142c-18.785-18.785-20.843-47.986-6.147-69.038l-16.4-11.448zm8.404 94.628a73.844 73.844 0 0 0 22.212 15.289l8.134-18.272a53.86 53.86 0 0 1-16.204-11.159l-14.142 14.142zm17.236 10.421a57.904 57.904 0 0 0 11.45 16.249l14.142-14.142a37.911 37.911 0 0 1-7.506-10.643l-18.086 8.536zm11.45 16.249c18.088 18.088 45.128 21.719 66.813 10.948l-8.896-17.912c-14.226 7.065-31.942 4.655-43.775-7.178L40.87 226.894zm54.738 8.459a58.549 58.549 0 0 0 3.262 3.541l14.142-14.142a38.778 38.778 0 0 1-2.15-2.333l-15.254 12.934zm3.262 3.541c22.651 22.651 59.374 22.651 82.025 0l-14.143-14.142c-14.84 14.84-38.9 14.84-53.74 0L98.87 238.894zm82.025 0a58.196 58.196 0 0 0 7.956-9.911l-16.874-10.736a38.156 38.156 0 0 1-5.225 6.505l14.143 14.142zm-5.12-6.42c15.833 8.291 35.856 5.802 49.178-7.521l-14.142-14.142c-6.962 6.962-17.452 8.295-25.758 3.945l-9.278 17.718zm49.178-7.521c10.122-10.121 13.988-24.127 11.632-37.184l-19.682 3.551c1.242 6.885-.799 14.199-6.092 19.491l14.142 14.142zm4.799-50.201a38.015 38.015 0 0 1-7.983 6.118l9.95 17.349a58.035 58.035 0 0 0 12.175-9.324l-14.142-14.143zm5.176-47.311c9.403 14.702 7.666 34.47-5.176 47.311l14.142 14.142c19.622-19.622 22.238-49.783 7.883-72.229l-16.849 10.776z" fill="#fff" mask="url(#a)"/><path d="M75.183 78.56c1.75 0 3.136.533 4.16 1.6 1.067 1.024 1.6 2.41 1.6 4.16v34.24c0 1.749-.533 3.157-1.6 4.224-1.024 1.067-2.41 1.6-4.16 1.6s-3.157-.512-4.224-1.536c-1.024-1.067-1.536-2.496-1.536-4.288v-12.8H50.991v12.8c0 1.749-.533 3.157-1.6 4.224-1.024 1.067-2.41 1.6-4.16 1.6s-3.157-.512-4.224-1.536c-1.024-1.067-1.536-2.496-1.536-4.288V84.32c0-1.75.512-3.136 1.536-4.16 1.067-1.067 2.475-1.6 4.224-1.6 1.75 0 3.136.533 4.16 1.6 1.067 1.024 1.6 2.41 1.6 4.16v12.096h18.432V84.32c0-1.75.512-3.136 1.536-4.16 1.067-1.067 2.475-1.6 4.224-1.6zm57.176 38.208c.384.811.576 1.6.576 2.368 0 1.408-.576 2.603-1.728 3.584-1.11.981-2.39 1.472-3.84 1.472a4.93 4.93 0 0 1-2.688-.768c-.811-.512-1.451-1.28-1.92-2.304l-2.88-6.464H99.142l-2.944 6.464c-.469 1.024-1.13 1.792-1.983 2.304a4.933 4.933 0 0 1-2.689.768c-1.45 0-2.773-.491-3.968-1.472-1.152-.981-1.728-2.176-1.728-3.584 0-.768.192-1.557.576-2.368l16.897-34.688c.554-1.152 1.365-2.027 2.432-2.624a7.17 7.17 0 0 1 3.648-.96c1.28 0 2.474.32 3.584.96a5.725 5.725 0 0 1 2.496 2.624l16.896 34.688zm-16.448-10.944l-6.4-14.272-6.4 14.272h12.8zm42.124 18.752c-4.523 0-8.491-.939-11.904-2.816-3.371-1.877-5.995-4.565-7.872-8.064-1.835-3.499-2.752-7.595-2.752-12.288 0-4.65.917-8.725 2.752-12.224 1.877-3.499 4.501-6.187 7.872-8.064 3.413-1.877 7.381-2.816 11.904-2.816 5.418 0 10.176 1.43 14.272 4.288.725.512 1.237 1.067 1.536 1.664.341.597.512 1.365.512 2.304 0 1.323-.384 2.453-1.152 3.392-.726.896-1.622 1.344-2.688 1.344-.64 0-1.216-.085-1.728-.256-.512-.213-1.11-.533-1.792-.96-1.494-.896-2.902-1.536-4.224-1.92a14.618 14.618 0 0 0-4.096-.576c-3.798 0-6.635 1.152-8.512 3.456-1.835 2.261-2.752 5.717-2.752 10.368 0 4.693.917 8.192 2.752 10.496 1.877 2.261 4.714 3.392 8.512 3.392 1.28 0 2.517-.192 3.712-.576 1.194-.427 2.73-1.067 4.608-1.92.896-.469 1.557-.789 1.984-.96.426-.171.938-.256 1.536-.256 1.066 0 1.962.469 2.688 1.408.768.896 1.152 2.005 1.152 3.328 0 .896-.171 1.664-.512 2.304-.299.597-.811 1.152-1.536 1.664-4.096 2.859-8.854 4.288-14.272 4.288zm60.079-9.408c1.109 1.067 1.664 2.304 1.664 3.712 0 1.408-.534 2.645-1.6 3.712-1.067 1.067-2.326 1.6-3.776 1.6-1.579 0-3.03-.683-4.352-2.048l-18.24-18.688v15.104c0 1.792-.534 3.221-1.6 4.288-1.067 1.024-2.518 1.536-4.352 1.536-1.792 0-3.222-.512-4.288-1.536-1.024-1.067-1.536-2.496-1.536-4.288V84.32c0-1.75.512-3.136 1.536-4.16 1.066-1.067 2.496-1.6 4.288-1.6 1.834 0 3.285.533 4.352 1.6 1.066 1.024 1.6 2.41 1.6 4.16V98.4l17.984-18.112c1.109-1.152 2.368-1.728 3.775-1.728 1.409 0 2.646.533 3.713 1.6 1.066 1.024 1.6 2.24 1.6 3.648s-.619 2.71-1.856 3.904l-13.12 12.864 14.208 14.592z" fill="#FF5A5F"/><path d="M68.378 178.576c-4.522 0-8.49-.939-11.904-2.816-3.37-1.877-5.994-4.565-7.872-8.064-1.834-3.499-2.752-7.595-2.752-12.288 0-4.651.918-8.725 2.752-12.224 1.878-3.499 4.502-6.187 7.872-8.064 3.414-1.877 7.382-2.816 11.904-2.816 5.419 0 10.176 1.429 14.272 4.288.726.512 1.238 1.067 1.536 1.664.342.597.512 1.365.512 2.304 0 1.323-.384 2.453-1.152 3.392-.725.896-1.621 1.344-2.688 1.344-.64 0-1.216-.085-1.728-.256-.512-.213-1.11-.533-1.792-.96-1.493-.896-2.901-1.536-4.224-1.92a14.616 14.616 0 0 0-4.096-.576c-3.797 0-6.634 1.152-8.512 3.456-1.834 2.261-2.752 5.717-2.752 10.368 0 4.693.918 8.192 2.752 10.496 1.878 2.261 4.715 3.392 8.512 3.392 1.28 0 2.518-.192 3.712-.576 1.195-.427 2.73-1.067 4.608-1.92.896-.469 1.558-.789 1.984-.96.427-.171.939-.256 1.536-.256 1.067 0 1.963.469 2.688 1.408.768.896 1.152 2.005 1.152 3.328 0 .896-.17 1.664-.512 2.304-.298.597-.81 1.152-1.536 1.664-4.096 2.859-8.853 4.288-14.272 4.288zm27.44-.576c-1.75 0-3.094-.469-4.033-1.408-.938-.939-1.408-2.304-1.408-4.096V138.32c0-1.749.512-3.136 1.536-4.16 1.067-1.067 2.496-1.6 4.288-1.6 1.835 0 3.286.533 4.352 1.6 1.067 1.024 1.6 2.411 1.6 4.16v30.144h14.72c3.712 0 5.568 1.6 5.568 4.8 0 1.621-.469 2.816-1.408 3.584-.896.768-2.282 1.152-4.16 1.152H95.817zm48.896.576c-6.528 0-11.498-1.664-14.912-4.992-3.37-3.328-5.056-8.192-5.056-14.592V138.32c0-1.749.512-3.136 1.536-4.16 1.067-1.067 2.475-1.6 4.224-1.6 1.75 0 3.136.533 4.16 1.6 1.067 1.024 1.6 2.411 1.6 4.16v21.12c0 3.243.726 5.739 2.176 7.488 1.451 1.749 3.542 2.624 6.272 2.624 2.731 0 4.822-.875 6.272-2.624 1.451-1.749 2.176-4.245 2.176-7.488v-21.12c0-1.749.512-3.136 1.536-4.16 1.067-1.067 2.475-1.6 4.224-1.6 1.75 0 3.158.533 4.224 1.6 1.067 1.024 1.6 2.411 1.6 4.16v20.672c0 6.357-1.728 11.221-5.184 14.592-3.413 3.328-8.362 4.992-14.848 4.992zm58.248-24c2.645.811 4.672 2.176 6.08 4.096 1.408 1.877 2.112 4.203 2.112 6.976 0 2.475-.662 4.651-1.984 6.528-1.28 1.835-3.136 3.264-5.568 4.288-2.39 1.024-5.206 1.536-8.448 1.536H178.13c-1.75 0-3.094-.469-4.032-1.408-.939-.939-1.408-2.283-1.408-4.032v-34.24c0-1.749.469-3.093 1.408-4.032.938-.939 2.282-1.408 4.032-1.408h16.384c4.736 0 8.49 1.067 11.264 3.2 2.816 2.091 4.224 4.928 4.224 8.512 0 2.304-.619 4.352-1.856 6.144-1.238 1.749-2.966 3.029-5.184 3.84zm-18.816-3.968h8.384c2.218 0 3.84-.341 4.864-1.024s1.536-1.771 1.536-3.264c0-1.579-.512-2.731-1.536-3.456-1.024-.725-2.646-1.088-4.864-1.088h-8.384v8.832zm9.536 18.496c2.346 0 4.01-.363 4.992-1.088 1.024-.768 1.536-2.005 1.536-3.712 0-1.707-.512-2.923-1.536-3.648-.982-.768-2.646-1.152-4.992-1.152h-9.536v9.6h9.536z" fill="#fff"/></g><defs><clipPath id="clip0"><path fill="#fff" d="M0 0h256v256H0z"/></clipPath></defs></svg>