<svg width="256" height="229" fill="none" xmlns="http://www.w3.org/2000/svg"><path d="M239.306 102.116l-2.003 2.759 1.837 2.872c10.641 16.638 8.684 39.004-5.852 53.541a43.083 43.083 0 0 1-9.032 6.92l-3.059 1.754.626 3.471c1.521 8.427-.977 17.414-7.476 23.914-8.553 8.552-21.426 10.174-31.614 4.839l-4.071-2.132-2.467 3.877a43.164 43.164 0 0 1-5.907 7.357c-16.793 16.792-44.019 16.792-60.811 0a43.411 43.411 0 0 1-2.428-2.636l-2.532-2.986-3.506 1.742c-16.091 7.992-36.138 5.276-49.534-8.12l-3.536 3.535 3.535-3.535a42.917 42.917 0 0 1-8.492-12.045l-.792-1.679-1.696-.755a58.838 58.838 0 0 1-17.706-12.192l-3.463 3.464 3.463-3.464C2.262 152.089.02 120.187 16.08 97.182l1.793-2.57-1.531-2.735c-9.172-16.378-6.786-37.48 7.135-51.4 8.846-8.847 20.58-13.033 32.177-12.558l2.424.099 1.578-1.842a59.952 59.952 0 0 1 3.134-3.386C85.788-.208 123.05-.25 146.1 22.662l3.293 3.273 3.508-3.042c23.174-20.1 58.297-19.133 80.328 2.897 20.795 20.795 22.824 53.26 6.077 76.326z" fill="#FF5A5F" stroke="#fff" stroke-width="10"/><path d="M75.183 48.56c1.75 0 3.136.533 4.16 1.6 1.067 1.024 1.6 2.41 1.6 4.16v34.24c0 1.75-.533 3.157-1.6 4.224-1.024 1.067-2.41 1.6-4.16 1.6s-3.157-.512-4.224-1.536c-1.024-1.067-1.536-2.496-1.536-4.288v-12.8H50.991v12.8c0 1.75-.533 3.157-1.6 4.224-1.024 1.067-2.41 1.6-4.16 1.6s-3.157-.512-4.224-1.536c-1.024-1.067-1.536-2.496-1.536-4.288V54.32c0-1.75.512-3.136 1.536-4.16 1.067-1.067 2.475-1.6 4.224-1.6 1.75 0 3.136.533 4.16 1.6 1.067 1.024 1.6 2.41 1.6 4.16v12.096h18.432V54.32c0-1.75.512-3.136 1.536-4.16 1.067-1.067 2.475-1.6 4.224-1.6zm57.176 38.208c.384.81.576 1.6.576 2.368 0 1.408-.576 2.603-1.728 3.584-1.11.981-2.39 1.472-3.84 1.472a4.93 4.93 0 0 1-2.688-.768c-.811-.512-1.451-1.28-1.92-2.304l-2.88-6.464H99.142l-2.944 6.464c-.469 1.024-1.13 1.792-1.983 2.304a4.933 4.933 0 0 1-2.689.768c-1.45 0-2.773-.49-3.968-1.472-1.152-.981-1.728-2.176-1.728-3.584 0-.768.192-1.557.576-2.368l16.897-34.688c.554-1.152 1.365-2.027 2.432-2.624a7.17 7.17 0 0 1 3.648-.96c1.28 0 2.474.32 3.584.96a5.725 5.725 0 0 1 2.496 2.624l16.896 34.688zm-16.448-10.944l-6.4-14.272-6.4 14.272h12.8zm42.124 18.752c-4.523 0-8.491-.939-11.904-2.816-3.371-1.877-5.995-4.565-7.872-8.064-1.835-3.499-2.752-7.595-2.752-12.288 0-4.65.917-8.725 2.752-12.224 1.877-3.499 4.501-6.187 7.872-8.064 3.413-1.877 7.381-2.816 11.904-2.816 5.418 0 10.176 1.43 14.272 4.288.725.512 1.237 1.067 1.536 1.664.341.597.512 1.365.512 2.304 0 1.323-.384 2.453-1.152 3.392-.726.896-1.622 1.344-2.688 1.344-.64 0-1.216-.085-1.728-.256-.512-.213-1.11-.533-1.792-.96-1.494-.896-2.902-1.536-4.224-1.92a14.618 14.618 0 0 0-4.096-.576c-3.798 0-6.635 1.152-8.512 3.456-1.835 2.261-2.752 5.717-2.752 10.368 0 4.693.917 8.192 2.752 10.496 1.877 2.261 4.714 3.392 8.512 3.392 1.28 0 2.517-.192 3.712-.576 1.194-.427 2.73-1.067 4.608-1.92.896-.47 1.557-.79 1.984-.96.426-.17.938-.256 1.536-.256 1.066 0 1.962.47 2.688 1.408.768.896 1.152 2.005 1.152 3.328 0 .896-.171 1.664-.512 2.304-.299.597-.811 1.152-1.536 1.664-4.096 2.859-8.854 4.288-14.272 4.288zm60.079-9.408c1.109 1.067 1.664 2.304 1.664 3.712 0 1.408-.534 2.645-1.6 3.712-1.067 1.067-2.326 1.6-3.776 1.6-1.579 0-3.03-.683-4.352-2.048l-18.24-18.688V88.56c0 1.792-.534 3.221-1.6 4.288-1.067 1.024-2.518 1.536-4.352 1.536-1.792 0-3.222-.512-4.288-1.536-1.024-1.067-1.536-2.496-1.536-4.288V54.32c0-1.75.512-3.136 1.536-4.16 1.066-1.067 2.496-1.6 4.288-1.6 1.834 0 3.285.533 4.352 1.6 1.066 1.024 1.6 2.41 1.6 4.16V68.4l17.984-18.112c1.109-1.152 2.368-1.728 3.775-1.728 1.409 0 2.646.533 3.713 1.6 1.066 1.024 1.6 2.24 1.6 3.648s-.619 2.71-1.856 3.904l-13.12 12.864 14.208 14.592zM68.378 148.576c-4.522 0-8.49-.939-11.904-2.816-3.37-1.877-5.994-4.565-7.872-8.064-1.834-3.499-2.752-7.595-2.752-12.288 0-4.651.918-8.725 2.752-12.224 1.878-3.499 4.502-6.187 7.872-8.064 3.414-1.877 7.382-2.816 11.904-2.816 5.419 0 10.176 1.429 14.272 4.288.726.512 1.238 1.067 1.536 1.664.342.597.512 1.365.512 2.304 0 1.323-.384 2.453-1.152 3.392-.725.896-1.621 1.344-2.688 1.344-.64 0-1.216-.085-1.728-.256-.512-.213-1.11-.533-1.792-.96-1.493-.896-2.901-1.536-4.224-1.92a14.616 14.616 0 0 0-4.096-.576c-3.797 0-6.634 1.152-8.512 3.456-1.834 2.261-2.752 5.717-2.752 10.368 0 4.693.918 8.192 2.752 10.496 1.878 2.261 4.715 3.392 8.512 3.392 1.28 0 2.518-.192 3.712-.576 1.195-.427 2.73-1.067 4.608-1.92.896-.469 1.558-.789 1.984-.96.427-.171.939-.256 1.536-.256 1.067 0 1.963.469 2.688 1.408.768.896 1.152 2.005 1.152 3.328 0 .896-.17 1.664-.512 2.304-.298.597-.81 1.152-1.536 1.664-4.096 2.859-8.853 4.288-14.272 4.288zm27.44-.576c-1.75 0-3.094-.469-4.033-1.408-.938-.939-1.408-2.304-1.408-4.096V108.32c0-1.749.512-3.136 1.536-4.16 1.067-1.067 2.496-1.6 4.288-1.6 1.835 0 3.286.533 4.352 1.6 1.067 1.024 1.6 2.411 1.6 4.16v30.144h14.72c3.712 0 5.568 1.6 5.568 4.8 0 1.621-.469 2.816-1.408 3.584-.896.768-2.282 1.152-4.16 1.152H95.817zm48.896.576c-6.528 0-11.498-1.664-14.912-4.992-3.37-3.328-5.056-8.192-5.056-14.592V108.32c0-1.749.512-3.136 1.536-4.16 1.067-1.067 2.475-1.6 4.224-1.6 1.75 0 3.136.533 4.16 1.6 1.067 1.024 1.6 2.411 1.6 4.16v21.12c0 3.243.726 5.739 2.176 7.488 1.451 1.749 3.542 2.624 6.272 2.624 2.731 0 4.822-.875 6.272-2.624 1.451-1.749 2.176-4.245 2.176-7.488v-21.12c0-1.749.512-3.136 1.536-4.16 1.067-1.067 2.475-1.6 4.224-1.6 1.75 0 3.158.533 4.224 1.6 1.067 1.024 1.6 2.411 1.6 4.16v20.672c0 6.357-1.728 11.221-5.184 14.592-3.413 3.328-8.362 4.992-14.848 4.992zm58.248-24c2.645.811 4.672 2.176 6.08 4.096 1.408 1.877 2.112 4.203 2.112 6.976 0 2.475-.662 4.651-1.984 6.528-1.28 1.835-3.136 3.264-5.568 4.288-2.39 1.024-5.206 1.536-8.448 1.536H178.13c-1.75 0-3.094-.469-4.032-1.408-.939-.939-1.408-2.283-1.408-4.032v-34.24c0-1.749.469-3.093 1.408-4.032.938-.939 2.282-1.408 4.032-1.408h16.384c4.736 0 8.49 1.067 11.264 3.2 2.816 2.091 4.224 4.928 4.224 8.512 0 2.304-.619 4.352-1.856 6.144-1.238 1.749-2.966 3.029-5.184 3.84zm-18.816-3.968h8.384c2.218 0 3.84-.341 4.864-1.024s1.536-1.771 1.536-3.264c0-1.579-.512-2.731-1.536-3.456-1.024-.725-2.646-1.088-4.864-1.088h-8.384v8.832zm9.536 18.496c2.346 0 4.01-.363 4.992-1.088 1.024-.768 1.536-2.005 1.536-3.712 0-1.707-.512-2.923-1.536-3.648-.982-.768-2.646-1.152-4.992-1.152h-9.536v9.6h9.536z" fill="#fff"/><path d="M60.595 178.234c-1.386 0-2.678-.147-3.874-.442-1.178-.312-2.15-.737-2.912-1.274-.294-.225-.511-.459-.65-.702-.121-.243-.182-.555-.182-.936 0-.52.156-.971.468-1.352.312-.381.676-.572 1.092-.572.226 0 .442.035.65.104.208.069.468.199.78.39.71.399 1.413.685 2.106.858.71.173 1.508.26 2.392.26 1.023 0 1.794-.147 2.314-.442.537-.312.806-.763.806-1.352 0-.399-.251-.737-.754-1.014-.485-.295-1.421-.581-2.808-.858-1.716-.364-3.06-.797-4.03-1.3-.97-.503-1.655-1.092-2.054-1.768-.381-.693-.572-1.525-.572-2.496 0-1.109.33-2.115.988-3.016.659-.901 1.56-1.603 2.704-2.106 1.162-.52 2.462-.78 3.9-.78 1.265 0 2.392.139 3.38.416.988.277 1.89.711 2.704 1.3.312.225.529.468.65.728.139.243.208.546.208.91 0 .52-.156.971-.468 1.352-.295.381-.65.572-1.066.572-.225 0-.433-.026-.624-.078-.19-.069-.46-.208-.806-.416a16.924 16.924 0 0 0-.754-.39 5.123 5.123 0 0 0-1.43-.52 7.052 7.052 0 0 0-1.768-.208c-.884 0-1.594.173-2.132.52-.537.329-.806.771-.806 1.326 0 .329.096.598.286.806.19.208.546.416 1.066.624.52.191 1.291.39 2.314.598 1.664.364 2.973.806 3.926 1.326.954.503 1.63 1.092 2.028 1.768.399.676.598 1.473.598 2.392 0 1.144-.32 2.158-.962 3.042-.641.867-1.543 1.543-2.704 2.028-1.144.468-2.479.702-4.004.702zm16.287-.104c-.728 0-1.317-.208-1.768-.624-.433-.433-.65-1.005-.65-1.716v-12.246h-3.666c-.763 0-1.335-.156-1.716-.468-.364-.329-.546-.823-.546-1.482s.182-1.144.546-1.456c.381-.312.953-.468 1.716-.468h12.168c.763 0 1.326.156 1.69.468.381.312.572.797.572 1.456 0 .659-.19 1.153-.572 1.482-.364.312-.927.468-1.69.468H79.3v12.246c0 .711-.225 1.283-.676 1.716-.433.416-1.014.624-1.742.624zm24.779-3.068c.156.329.234.65.234.962 0 .572-.234 1.057-.702 1.456a2.284 2.284 0 0 1-1.56.598c-.399 0-.763-.104-1.092-.312-.33-.208-.59-.52-.78-.936l-1.17-2.626h-8.424l-1.196 2.626c-.19.416-.46.728-.806.936-.33.208-.693.312-1.092.312-.59 0-1.127-.199-1.612-.598-.468-.399-.702-.884-.702-1.456 0-.312.078-.633.234-.962l6.864-14.092c.225-.468.555-.823.988-1.066.45-.26.945-.39 1.482-.39.52 0 1.005.13 1.456.39.45.243.789.598 1.014 1.066l6.864 14.092zm-6.682-4.446l-2.6-5.798-2.6 5.798h5.2zm12.817 7.514c-.728 0-1.318-.208-1.768-.624-.434-.433-.65-1.005-.65-1.716v-12.246h-3.666c-.763 0-1.335-.156-1.716-.468-.364-.329-.546-.823-.546-1.482s.182-1.144.546-1.456c.381-.312.953-.468 1.716-.468h12.168c.762 0 1.326.156 1.69.468.381.312.572.797.572 1.456 0 .659-.191 1.153-.572 1.482-.364.312-.928.468-1.69.468h-3.666v12.246c0 .711-.226 1.283-.676 1.716-.434.416-1.014.624-1.742.624zm11.825-.13c-.71 0-1.256-.191-1.638-.572-.381-.381-.572-.927-.572-1.638v-13.91c0-.711.191-1.257.572-1.638.382-.381.928-.572 1.638-.572h8.996c.746 0 1.309.156 1.69.468.382.312.572.763.572 1.352 0 1.248-.754 1.872-2.262 1.872h-6.552v3.484h6.032c1.508 0 2.262.615 2.262 1.846 0 .589-.19 1.04-.572 1.352-.381.312-.944.468-1.69.468h-6.032v3.796h6.552c1.508 0 2.262.624 2.262 1.872 0 .589-.19 1.04-.572 1.352-.381.312-.944.468-1.69.468h-8.996zm34.731-18.46c.711 0 1.274.217 1.69.65.434.416.65.979.65 1.69v13.91c0 .711-.216 1.283-.65 1.716-.416.433-.979.65-1.69.65-.71 0-1.282-.208-1.716-.624-.416-.433-.624-1.014-.624-1.742v-5.2h-7.488v5.2c0 .711-.216 1.283-.65 1.716-.416.433-.979.65-1.69.65-.71 0-1.282-.208-1.716-.624-.416-.433-.624-1.014-.624-1.742v-13.91c0-.711.208-1.274.624-1.69.434-.433 1.006-.65 1.716-.65.711 0 1.274.217 1.69.65.434.416.65.979.65 1.69v4.914h7.488v-4.914c0-.711.208-1.274.624-1.69.434-.433 1.006-.65 1.716-.65zm7.784 18.616c-.728 0-1.309-.208-1.742-.624-.416-.433-.624-1.014-.624-1.742v-13.91c0-.711.208-1.274.624-1.69.433-.433 1.014-.65 1.742-.65.745 0 1.335.217 1.768.65.433.416.65.979.65 1.69v13.91c0 .728-.217 1.309-.65 1.742-.433.416-1.023.624-1.768.624zm19.826-10.504c.572 0 1.022.165 1.352.494.346.312.52.737.52 1.274v4.524c0 .867-.07 1.534-.208 2.002a1.913 1.913 0 0 1-.702 1.066c-.33.26-.832.485-1.508.676-.676.173-1.43.303-2.262.39-.815.104-1.578.156-2.288.156-1.994 0-3.727-.373-5.2-1.118-1.456-.763-2.574-1.846-3.354-3.25-.78-1.421-1.17-3.103-1.17-5.044 0-1.907.39-3.562 1.17-4.966a7.98 7.98 0 0 1 3.328-3.276c1.438-.763 3.12-1.144 5.044-1.144 1.213 0 2.296.147 3.25.442.97.277 1.872.711 2.704 1.3.294.208.502.433.624.676.138.243.208.555.208.936 0 .537-.148.997-.442 1.378-.295.364-.65.546-1.066.546-.278 0-.52-.035-.728-.104a7.447 7.447 0 0 1-.754-.416 8.648 8.648 0 0 0-1.82-.754 6.71 6.71 0 0 0-1.82-.234c-1.647 0-2.878.459-3.692 1.378-.798.919-1.196 2.331-1.196 4.238 0 1.959.416 3.415 1.248 4.368.849.936 2.14 1.404 3.874 1.404.832 0 1.655-.087 2.47-.26v-3.406h-1.872c-.572 0-1.014-.139-1.326-.416-.312-.295-.468-.702-.468-1.222s.156-.919.468-1.196c.312-.295.754-.442 1.326-.442h4.29zm19.243-8.112c.711 0 1.274.217 1.69.65.434.416.65.979.65 1.69v13.91c0 .711-.216 1.283-.65 1.716-.416.433-.979.65-1.69.65-.71 0-1.282-.208-1.716-.624-.416-.433-.624-1.014-.624-1.742v-5.2h-7.488v5.2c0 .711-.216 1.283-.65 1.716-.416.433-.979.65-1.69.65-.71 0-1.282-.208-1.716-.624-.416-.433-.624-1.014-.624-1.742v-13.91c0-.711.208-1.274.624-1.69.434-.433 1.006-.65 1.716-.65.711 0 1.274.217 1.69.65.434.416.65.979.65 1.69v4.914h7.488v-4.914c0-.711.208-1.274.624-1.69.434-.433 1.006-.65 1.716-.65z" fill="#273444"/></svg>